<svg width="164" height="118" viewBox="0 0 164 118" fill="none" xmlns="http://www.w3.org/2000/svg">
<g clip-path="url(#clip0_5_5)">
<path d="M163.9 69.518C160.057 75.3729 156.853 83.1454 154.281 89.7026C145.522 83.9502 137.047 79.7286 128.833 76.6039V117.983H107.26V70.5201C106.439 70.3544 105.626 70.2045 104.813 70.0624C89.3239 67.3401 74.5838 67.3401 59.0942 70.0624C57.5239 70.3386 55.9379 70.6463 54.3439 70.9856V117.983H32.7705V77.5113C25.2742 80.5256 17.5649 84.4868 9.62678 89.7026C6.19428 82.956 2.87225 76.3198 0 69.518C11.3312 62.0769 22.2363 56.8927 32.7705 53.2471V0H54.3439V47.5815C54.92 47.4711 55.4881 47.3685 56.0562 47.2659C73.4081 44.2122 89.9235 44.1806 107.26 47.1633V0H128.833V52.4738C140.07 56.1509 151.74 61.5325 163.9 69.518Z" fill="#FF6D63"/>
</g>
<defs>
<clipPath id="clip0_5_5">
<rect width="164" height="118" fill="white"/>
</clipPath>
</defs>
</svg>
